<svg xmlns="http://www.w3.org/2000/svg" xmlns:xlink="http://www.w3.org/1999/xlink" width="496.971" height="340.71" viewBox="0 0 496.971 340.71">
  <defs>
    <linearGradient id="linear-gradient" x1="-4.037" y1="0.125" x2="-3.724" y2="0.869" gradientUnits="objectBoundingBox">
      <stop offset="0" stop-color="#ffb864"/>
      <stop offset="0.41" stop-color="#b3674c"/>
      <stop offset="0.81" stop-color="#6f1d36"/>
      <stop offset="1" stop-color="#54002d"/>
    </linearGradient>
  </defs>
  <g id="heroIllustration" transform="translate(0 0)">
    <g id="_2" data-name="2">
      <path id="Path_1" data-name="Path 1" d="M216.354,514.016c-30.647,6.1.646,10.81,3.392,10.849,20.858.336,46.93,2.947,67.788,3.283,12.723.2,28.806.523,41.49-.517,11.45-.93,38.407.743,49.87,0,36.042-2.333,104.677-.33,91.276-14.3-7-7.308-38.22-8.2-58.877-7.2-34.1,1.648-68.24,1.854-102.37,1.583q-25.064-.194-50.129-.7c-6.856-.142-25.846.762-32.618,1.938C223.067,509.448,219.371,513.415,216.354,514.016Z" transform="translate(-81.385 -201.291)" fill="#6271d2" opacity="0.23"/>
      <path id="Path_2" data-name="Path 2" d="M457.64,81.34H264.511A6.61,6.61,0,0,0,257.94,88V356.582a6.61,6.61,0,0,0,6.571,6.649H457.64a6.61,6.61,0,0,0,6.565-6.649V88a6.61,6.61,0,0,0-6.565-6.655Z" transform="translate(-100.828 -51.1)" fill="#53628b"/>
      <path id="Path_3" data-name="Path 3" d="M454.21,105H284.439a3.231,3.231,0,0,0-3.16,3.289V353.052a3.231,3.231,0,0,0,3.16,3.289H454.21a3.231,3.231,0,0,0,3.16-3.289V108.276A3.231,3.231,0,0,0,454.21,105Z" transform="translate(-109.086 -59.472)" fill="#fff"/>
      <path id="Path_4" data-name="Path 4" d="M432.074,63.738h-24.3a12.568,12.568,0,0,0-25.135,0H358.316A3.916,3.916,0,0,0,354.4,67.66V96.291H436V67.66A3.922,3.922,0,0,0,432.074,63.738Zm-36.87,4.9a4.9,4.9,0,1,1,4.885-4.9,4.9,4.9,0,0,1-4.885,4.9Z" transform="translate(-134.96 -40.424)" fill="#92b6d6"/>
      <rect id="Rectangle_5" data-name="Rectangle 5" width="81.603" height="17.575" transform="translate(219.434 38.259)" fill="#83a8c4"/>
      <path id="Path_5" data-name="Path 5" d="M383.286,201.1H439.5c3.166,0,3.173-4.93,0-4.93H383.286C380.113,196.17,380.107,201.1,383.286,201.1Z" transform="translate(-144.338 -91.732)" fill="#76a2c7"/>
      <path id="Path_6" data-name="Path 6" d="M380.236,221.69h94.125c3.173,0,3.179-4.93,0-4.93H380.236C377.063,216.76,377.057,221.69,380.236,221.69Z" transform="translate(-143.259 -99.018)" fill="#76a2c7"/>
      <path id="Path_7" data-name="Path 7" d="M385.576,240.76H440.77c3.173,0,3.179-4.93,0-4.93H385.576C382.4,235.83,382.4,240.76,385.576,240.76Z" transform="translate(-145.149 -105.766)" fill="#76a2c7"/>
      <rect id="Rectangle_6" data-name="Rectangle 6" width="27.19" height="27.19" rx="3.84" transform="translate(192.864 106.021)" stroke-width="3" stroke="#76a2c7" stroke-linecap="round" stroke-linejoin="round" fill="none"/>
      <path id="Path_8" data-name="Path 8" d="M304.243,204.514l5.744,7.327c1.518,1.938,3.121,4.924,5.1,6.4,2.274,1.706,4.362.743,5.815-1.434,2.811-4.284,4.833-9,7.883-13.188a86.944,86.944,0,0,1,12.09-13.278c2.358-2.132-1.137-5.609-3.483-3.489a91.263,91.263,0,0,0-16.05,18.971c-1.15,1.822-2.236,3.7-3.231,5.6q-.756,1.434-1.46,2.895c1.88.265,1.977-.252.3-1.564-.756-1.977-3.289-4.187-4.6-5.861l-4.594-5.861c-1.938-2.494-5.421,1.014-3.483,3.483Z" transform="translate(-117.02 -88.2)" fill="#00ff9d"/>
      <path id="Path_9" data-name="Path 9" d="M383.286,277.37H439.5c3.166,0,3.173-4.93,0-4.93H383.286C380.113,272.44,380.107,277.37,383.286,277.37Z" transform="translate(-144.338 -118.72)" fill="#76a2c7"/>
      <path id="Path_10" data-name="Path 10" d="M380.236,297.96h94.125c3.173,0,3.179-4.93,0-4.93H380.236C377.063,293.03,377.057,297.96,380.236,297.96Z" transform="translate(-143.259 -126.006)" fill="#76a2c7"/>
      <path id="Path_11" data-name="Path 11" d="M385.576,317.03H440.77c3.173,0,3.179-4.93,0-4.93H385.576C382.4,312.1,382.4,317.03,385.576,317.03Z" transform="translate(-145.149 -132.754)" fill="#76a2c7"/>
      <rect id="Rectangle_7" data-name="Rectangle 7" width="27.19" height="27.19" rx="3.84" transform="translate(192.864 155.303)" stroke-width="3" stroke="#76a2c7" stroke-linecap="round" stroke-linejoin="round" fill="none"/>
      <path id="Path_12" data-name="Path 12" d="M304.243,280.784l5.744,7.327c1.518,1.939,3.121,4.917,5.1,6.4,2.274,1.706,4.362.743,5.815-1.435,2.811-4.284,4.833-9,7.883-13.188a86.945,86.945,0,0,1,12.09-13.278c2.358-2.132-1.137-5.609-3.483-3.489a91.262,91.262,0,0,0-16.05,18.971c-1.15,1.822-2.236,3.7-3.231,5.6q-.756,1.434-1.46,2.895,2.82.4.3-1.564c-.756-1.977-3.289-4.187-4.6-5.861l-4.594-5.861c-1.938-2.494-5.421,1.014-3.483,3.483Z" transform="translate(-117.02 -115.188)" fill="#00ff9d"/>
      <path id="Path_13" data-name="Path 13" d="M383.286,353.64H439.5c3.166,0,3.173-4.93,0-4.93H383.286C380.113,348.71,380.107,353.64,383.286,353.64Z" transform="translate(-144.338 -145.708)" fill="#76a2c7"/>
      <path id="Path_14" data-name="Path 14" d="M380.236,374.23h94.125c3.173,0,3.179-4.93,0-4.93H380.236C377.063,369.3,377.057,374.23,380.236,374.23Z" transform="translate(-143.259 -152.994)" fill="#76a2c7"/>
      <path id="Path_15" data-name="Path 15" d="M385.576,393.3H440.77c3.173,0,3.179-4.93,0-4.93H385.576C382.4,388.37,382.4,393.3,385.576,393.3Z" transform="translate(-145.149 -159.742)" fill="#76a2c7"/>
      <rect id="Rectangle_8" data-name="Rectangle 8" width="27.19" height="27.19" rx="3.84" transform="translate(192.864 204.585)" stroke-width="3" stroke="#76a2c7" stroke-linecap="round" stroke-linejoin="round" fill="none"/>
      <path id="Path_16" data-name="Path 16" d="M304.243,357.054l5.744,7.327c1.518,1.938,3.121,4.917,5.1,6.4,2.274,1.706,4.362.743,5.815-1.434,2.811-4.284,4.833-9,7.883-13.188a86.945,86.945,0,0,1,12.09-13.278c2.358-2.132-1.137-5.609-3.483-3.489a91.261,91.261,0,0,0-16.05,18.971c-1.15,1.822-2.236,3.7-3.231,5.6q-.756,1.434-1.46,2.895c1.88.265,1.977-.252.3-1.57-.756-1.971-3.289-4.181-4.6-5.854l-4.594-5.861c-1.938-2.494-5.421,1.014-3.483,3.483Z" transform="translate(-117.02 -142.176)" fill="#00ff9d"/>
      <path id="Path_17" data-name="Path 17" d="M383.286,429.9H439.5c3.166,0,3.173-4.924,0-4.924H383.286C380.113,424.98,380.107,429.9,383.286,429.9Z" transform="translate(-144.338 -172.696)" fill="#76a2c7"/>
      <path id="Path_18" data-name="Path 18" d="M380.236,450.5h94.125c3.173,0,3.179-4.93,0-4.93H380.236C377.063,445.57,377.057,450.5,380.236,450.5Z" transform="translate(-143.259 -179.982)" fill="#76a2c7"/>
      <path id="Path_19" data-name="Path 19" d="M385.576,469.57H440.77c3.173,0,3.179-4.93,0-4.93H385.576C382.4,464.64,382.4,469.57,385.576,469.57Z" transform="translate(-145.149 -186.73)" fill="#76a2c7"/>
      <rect id="Rectangle_9" data-name="Rectangle 9" width="27.19" height="27.19" rx="3.84" transform="translate(192.864 253.867)" stroke-width="3" stroke="#76a2c7" stroke-linecap="round" stroke-linejoin="round" fill="none"/>
      <path id="Path_20" data-name="Path 20" d="M304.229,433.324l5.744,7.327c1.518,1.938,3.121,4.917,5.1,6.4,2.274,1.706,4.362.743,5.815-1.435,2.811-4.284,4.833-9,7.883-13.188a86.943,86.943,0,0,1,12.09-13.278c2.358-2.132-1.137-5.609-3.483-3.489a91.263,91.263,0,0,0-16.051,18.971c-1.15,1.822-2.236,3.7-3.231,5.6q-.756,1.434-1.46,2.895c1.88.265,1.977-.252.3-1.57-.756-1.971-3.289-4.187-4.6-5.854l-4.62-5.841c-1.939-2.494-5.421,1.014-3.483,3.483Z" transform="translate(-117.006 -169.164)" fill="#00ff9d"/>
      <path id="Path_21" data-name="Path 21" d="M46.03,499.885l2.714-13.905L54.2,487.8,52.7,502.845Z" transform="translate(-16.288 -171.963)" fill="#f48c58"/>
      <path id="Path_22" data-name="Path 22" d="M104.379,498.9l.556-14.164-6.662.556-2.223,15Z" transform="translate(-33.987 -171.524)" fill="#f48c58"/>
      <path id="Path_23" data-name="Path 23" d="M92.387,484.534l16.244-2.914-.827,8.329-15.624,1.46Z" transform="translate(-32.618 -170.42)" fill="#efa726"/>
      <path id="Path_24" data-name="Path 24" d="M56.272,485.231,41.41,484.32l1.867,8.148,14.112-.452Z" transform="translate(-14.653 -171.375)" fill="#efa726"/>
      <path id="Path_25" data-name="Path 25" d="M147.988,551.814c1.111-6.106-.239-6.63-7.754-6.946-13.324-.549-16.1-11.1-28.321-8.607s-8.607,15.275-8.607,15.275Z" transform="translate(-45.935 -211.938)" fill="#d2d3a1"/>
      <path id="Path_26" data-name="Path 26" d="M16.609,552.176c-1.014-5.854.22-6.358,7.108-6.655,12.225-.53,14.771-10.648,25.975-8.251s7.9,14.642,7.9,14.642Z" transform="translate(-15.323 -212.299)" fill="#d2d3a1"/>
      <rect id="Rectangle_10" data-name="Rectangle 10" width="48.106" height="4.064" transform="translate(56.228 335.832)" fill="#b29b62"/>
      <rect id="Rectangle_11" data-name="Rectangle 11" width="43.389" height="4.064" transform="translate(0 335.832)" fill="#b29b62"/>
      <path id="Path_27" data-name="Path 27" d="M143.143,545.079c-4.026,3.877-9.3,2.914-3.748-1.939Z" transform="translate(-58.031 -214.507)" fill="#b29b62"/>
      <path id="Path_28" data-name="Path 28" d="M135.839,540.778c-4.032,3.877-9.3,2.921-3.754-1.938Z" transform="translate(-55.445 -212.985)" fill="#b29b62"/>
      <path id="Path_29" data-name="Path 29" d="M128.1,537.128c-4.026,3.877-9.3,2.914-3.748-1.938Z" transform="translate(-52.708 -211.693)" fill="#b29b62"/>
      <path id="Path_30" data-name="Path 30" d="M37.14,547.018c4.006,3.877,9.253,2.914,3.728-1.938Z" transform="translate(-22.698 -215.193)" fill="#b29b62"/>
      <path id="Path_31" data-name="Path 31" d="M44.41,542.719c4.006,3.877,9.253,2.914,3.728-1.938Z" transform="translate(-25.271 -213.672)" fill="#b29b62"/>
      <path id="Path_32" data-name="Path 32" d="M52.1,539.059c4.006,3.877,9.253,2.921,3.728-1.939Z" transform="translate(-27.992 -212.376)" fill="#b29b62"/>
      <path id="Path_33" data-name="Path 33" d="M215.542,142.613c-1.641-6.345-1.027-22.919,3.27-27.629,8.8-2.656,23.126,4.71,23.126,4.71s-15.753,11.049-13.1,25.781Z" transform="translate(-85.529 -62.8)" fill="#b4c13a"/>
      <path id="Path_34" data-name="Path 34" d="M231.865,145.972c1.538-6.462,5.531-15.76,9.007-18.312,0,0-8.083,4.911-10.642,18.092Z" transform="translate(-91.023 -67.49)" fill="#9fa52f"/>
      <path id="Path_35" data-name="Path 35" d="M220.7,146.608c-1.027-5.118,4.523-31.313,8.4-34.789,0,0-14.532-.207-19.443,4.523,0,0,.207,22.919,5.731,30.492Z" transform="translate(-83.744 -61.885)" fill="#cece38"/>
      <path id="Path_36" data-name="Path 36" d="M217.993,155.7c-1.938-4.762-1.292-28.734,1.615-31.784,0,0-13.621.246-17.789,4.594,0,0,3.877,21.446,10.9,28.133Z" transform="translate(-80.97 -66.167)" fill="#b4c13a"/>
      <path id="Path_37" data-name="Path 37" d="M213.181,153.513c-2.249-4.626-3.231-28.586-.485-31.823,0,0-13.569,1.144-17.446,5.757,0,0,5.3,21.142,12.736,27.352Z" transform="translate(-78.645 -65.378)" fill="#d5dd40"/>
      <path id="Path_38" data-name="Path 38" d="M205.674,153.142c-1.984-5.072,6.371-9.046,7.269-3.173C213.861,156,208.439,160.2,205.674,153.142Z" transform="translate(-82.226 -74.35)" fill="#b4c13a"/>
      <path id="Path_39" data-name="Path 39" d="M204.473,135.106c-.678-1.738,2.178-3.1,2.488-1.086S205.423,137.529,204.473,135.106Z" transform="translate(-81.872 -69.386)" fill="#b4c13a"/>
      <path id="Path_40" data-name="Path 40" d="M182.81,97.141l3.069,9.828,1.434-1.434-2.662-9.414Z" transform="translate(-64.687 -34.012)" fill="#b4c13a"/>
      <path id="Path_41" data-name="Path 41" d="M200.23,92.941l-.11,10.293,1.8-.918.375-9.776Z" transform="translate(-70.812 -32.745)" fill="#b4c13a"/>
      <path id="Path_42" data-name="Path 42" d="M243.836,120.41l2.675,1.189s-5.815,5.615-5.731,5.382S243.836,120.41,243.836,120.41Z" transform="translate(-94.755 -64.925)" fill="#d5dd40"/>
      <path id="Path_43" data-name="Path 43" d="M88.863,134.16s-29.723-5.518-31.526-4.588-18.228,18.092-18.57,19.546,15.178,61.973,15.656,62.573,15.03.246,20.186-.859S88.863,134.16,88.863,134.16Z" transform="translate(-23.272 -68.129)" fill="#a34213"/>
      <path id="Path_44" data-name="Path 44" d="M31.351,114.67l7.6,31.965-10.1-29.361Z" transform="translate(-10.208 -40.576)" fill="#7f3011"/>
      <path id="Path_45" data-name="Path 45" d="M43.243,103.06l4.542,33.917-7.3-31.151Z" transform="translate(-14.327 -36.467)" fill="#7f3011"/>
      <path id="Path_46" data-name="Path 46" d="M104.3,434.287c7.108-39.157,20.134-128.152,17.634-158.56,0,0-33.186-12.632-54.425,4.446,0,0-2.365,138.7-6.946,156.195l8.749.834L89.986,307.1l11.631-3.877S95.09,429.712,93,436.374Z" transform="translate(-30.986 -118.292)" fill="#2d8e96"/>
      <path id="Path_47" data-name="Path 47" d="M105.69,322.156l15.618-9.376s-6.662,127.434-8.749,134.128l8.355-1.551c-.22,1.254-.439,2.468-.646,3.631l-11.25,2.081c2.087-6.662,7.915-131.415,7.915-131.415Z" transform="translate(-46.955 -132.994)" fill="#1c787a"/>
      <path id="Path_48" data-name="Path 48" d="M67.506,283.7a36.553,36.553,0,0,1,3.509-2.494c-.284,15.773-2.63,138.141-6.94,154.527l5.912.562-.7,4.433L60.56,439.9C65.141,422.407,67.506,283.7,67.506,283.7Z" transform="translate(-30.986 -121.823)" fill="#1c787a"/>
      <path id="Path_49" data-name="Path 49" d="M125.9,278c-2.914,5.415-24.16,20.2-53.314,17.911l-.414-15.624Z" transform="translate(-35.094 -120.688)" fill="#1c787a"/>
      <path id="Path_50" data-name="Path 50" d="M120.076,232.374c-13.886,10.274-47.77,5.563-50.258,2.778-4.723-5.279,5.55-28.605-5.815-61.927-.853-2.494,9.44-35.538,15.275-33.878s34.156,4.168,37.477,4.446,12.49,16.218,5.557,45.263C117.853,207.658,128.721,225.977,120.076,232.374Z" transform="translate(-32.186 -71.604)" fill="#ffc522"/>
      <path id="Path_51" data-name="Path 51" d="M78.986,139.3c-5.408,8.432-11.295,28.269-10.642,30.175,11.385,33.322-.174,57.689,4.523,62.968,2.358,2.636,34.2,5.958,49.2-2.346a7.547,7.547,0,0,1-2.035,2.274c-13.886,10.274-47.77,5.563-50.258,2.778-4.723-5.279,5.55-28.605-5.815-61.927C63.13,170.766,73.119,138.632,78.986,139.3Z" transform="translate(-32.172 -71.607)" fill="#d69209"/>
      <path id="Path_52" data-name="Path 52" d="M168.169,187.343c5.815,1.938,1.111,20.826-4.439,19.436s-15-14.991-15.553-18.325-4.575-43.292-2.778-42.207C156.228,152.91,159.84,184.565,168.169,187.343Z" transform="translate(-60.843 -74.06)" fill="#ffc522"/>
      <path id="Path_53" data-name="Path 53" d="M145.4,146.248a11.384,11.384,0,0,1,1.867,1.454c.323,10.629,2.778,34.66,3.231,37.212.556,3.334,10,16.936,15.546,18.325a3.055,3.055,0,0,0,2.875-1.027c-1.292,2.972-3.186,5.066-5.169,4.568-5.557-1.389-15-14.991-15.553-18.325S143.6,145.136,145.4,146.248Z" transform="translate(-60.844 -74.059)" fill="#d69209"/>
      <path id="Path_54" data-name="Path 54" d="M22.548,187.55c-5.945.956,13.214,14.131,16.386,9.44,6.94-10.274,13.989-9.259,15.081-12.451s11.172-44.585,9.046-44.753C44.485,138.12,31.129,186.174,22.548,187.55Z" transform="translate(-17.133 -71.766)" fill="#ffc522"/>
      <path id="Path_55" data-name="Path 55" d="M36.667,214.563c5.589-8.264,14.862-11.411,18.842-13.983-.717,2.856-1.254,4.872-1.467,5.486-1.092,3.192-8.142,2.178-15.081,12.451-2.94,4.349-19.637-6.668-17.285-9.046C26.012,213.225,34.625,217.567,36.667,214.563Z" transform="translate(-17.147 -93.293)" fill="#d69209"/>
      <path id="Path_56" data-name="Path 56" d="M87.481,135.676c.1-.485-3.231-7.6-3.231-7.6l8.885-2.4,23.74,6.772-2.8,6.358L106.7,150.085Z" transform="translate(-39.368 -66.79)" fill="#dd9e1f"/>
      <path id="Path_57" data-name="Path 57" d="M40.395,218.668c1.706,2.2.9,7.566-3.541,7.017s-17.233-4.168-17.233-4.168C8.533,199.315,37.481,214.92,40.395,218.668Z" transform="translate(-15.608 -96.57)" fill="#ce6e0f"/>
      <path id="Path_58" data-name="Path 58" d="M32.3,218.254c-1.292-1.648-7.605-5.6-13.343-7.605,4.458-3.489,20,5.331,22.092,8.019,1.706,2.2.9,7.566-3.541,7.017-1.363-.174-3.509-.646-5.815-1.182A4.974,4.974,0,0,0,32.3,218.254Z" transform="translate(-16.266 -96.571)" fill="#fc9c29"/>
      <path id="Path_59" data-name="Path 59" d="M172.125,208.261c1.467-2.352,8.775-.394,8.6,4.077-1.092,27.94-15.172,22.725-15.417,12.5C165.107,216.092,172.125,208.261,172.125,208.261Z" transform="translate(-68.049 -95.656)" fill="#ce6e0f"/>
      <path id="Path_60" data-name="Path 60" d="M175.593,222.127c.168-4.226-6.345-6.2-8.3-4.42a32.307,32.307,0,0,1,5.538-9.447c1.467-2.352,8.775-.394,8.6,4.077-.5,12.826-3.741,18.661-7.108,20.238a54.58,54.58,0,0,0,1.273-10.448Z" transform="translate(-68.752 -95.656)" fill="#fc9c29"/>
      <path id="Path_61" data-name="Path 61" d="M75.759,139.06c1.874,4.161,2.914,30.408-7.915,58.729l-3.127-2.707s2.5-48.106-.646-53.521Z" transform="translate(-32.228 -71.524)" fill="#bc5319"/>
      <path id="Path_62" data-name="Path 62" d="M146.626,145.267c2.081,3.541,5.815,29.988,1.874,53.941l-2.081,1.247s-6.339-51.046-9.789-56.215Z" transform="translate(-57.903 -73.357)" fill="#bc5319"/>
      <path id="Path_63" data-name="Path 63" d="M108.1,264.293l.834-3.883-9.44.556.834,6.384Z" transform="translate(-35.204 -92.145)" fill="#4cc6c9"/>
      <path id="Path_64" data-name="Path 64" d="M108.389,130.648C108.666,129.537,112,115.1,112,115.1L93.12,103.71l3.05,26.1Z" transform="translate(-42.507 -59.016)" fill="#ffae6c"/>
      <path id="Path_65" data-name="Path 65" d="M178.625,219.9c10.151,4.9,17.078-24.993,23.953-39.57l-5.415-2.921C190.5,193.868,166.549,215.914,178.625,219.9Z" transform="translate(-71.577 -85.094)" fill="#ffae6c"/>
      <path id="Path_66" data-name="Path 66" d="M201.806,180.15l4.064,1.15c-6.255,13.266-12.555,39.209-21.291,40.061C191.029,211.068,197.057,190.876,201.806,180.15Z" transform="translate(-74.87 -86.064)" fill="#f48c58"/>
      <path id="Path_67" data-name="Path 67" d="M95.227,106.051l-.42,9.44L82.73,107.433l7.146-3.883Z" transform="translate(-29.274 -36.641)" fill="#ffae6c"/>
      <path id="Path_68" data-name="Path 68" d="M38.264,228.937c5.169,10.616,19.385,30.615,16.031,41.858l-5.622-1.04c1.667-12.923-29.154-37.07-23.326-44.585C33.056,219.962,38.264,228.937,38.264,228.937Z" transform="translate(-18.266 -101.419)" fill="#ffae6c"/>
      <path id="Path_69" data-name="Path 69" d="M25.348,225.191c3.774-2.546,6.94-1.7,9.195-.174a9.434,9.434,0,0,0-3.27,1.221c-6.009,6.759,20.154,30.789,20.49,44.093l-3.089-.569C50.341,256.846,19.519,232.693,25.348,225.191Z" transform="translate(-18.266 -101.427)" fill="#f48c58"/>
      <path id="Path_70" data-name="Path 70" d="M114.275,175.146c.562-4.342-3.354-2.908-3.541-.207C110.521,177.854,113.648,179.941,114.275,175.146Z" transform="translate(-48.736 -83.315)" fill="#fc9c29"/>
      <path id="Path_71" data-name="Path 71" d="M115.885,212c.562-4.342-3.347-2.908-3.541-.207C112.117,214.7,115.258,216.791,115.885,212Z" transform="translate(-49.305 -96.354)" fill="#fc9c29"/>
      <path id="Path_72" data-name="Path 72" d="M117.926,241.866c.562-4.342-3.347-2.908-3.541-.207C114.178,244.574,117.3,246.654,117.926,241.866Z" transform="translate(-50.028 -106.924)" fill="#fc9c29"/>
      <path id="Path_73" data-name="Path 73" d="M119.749,270.656c.569-4.342-3.347-2.908-3.534-.207C116,273.364,119.128,275.451,119.749,270.656Z" transform="translate(-50.675 -117.111)" fill="#fc9c29"/>
      <path id="Path_74" data-name="Path 74" d="M121.967,152.35l-12.277,1.441.672,3.069,6.474,2.791,5.35-4.194Z" transform="translate(-38.813 -53.909)" fill="#fc9c29"/>
      <path id="Path_75" data-name="Path 75" d="M70.723,102.225l-8.193.556,4.581-8.471Z" transform="translate(-22.126 -33.371)" fill="#ffcc3b"/>
      <path id="Path_76" data-name="Path 76" d="M121.746,109.133l-6.836-1,3.121-6.352Z" transform="translate(-40.661 -36.015)" fill="#ffcc3b"/>
      <path id="Path_77" data-name="Path 77" d="M233.237,153.032c-2.281-2.623-8.019-1.874-12.807,9.479l3.748,1.874S235.324,155.43,233.237,153.032Z" transform="translate(-87.555 -76.024)" fill="#f48c58"/>
      <path id="Path_78" data-name="Path 78" d="M205.516,175.013c-6.875-3.121-8.542-10.2-4.374-8.536,0,0-4.581-7.108.646-5.622,0,0-3.961-7.915,2.707-4.794l14.157,7.915-9.6,13.11Z" transform="translate(-79.929 -77.282)" fill="#ffae6c"/>
      <path id="Path_79" data-name="Path 79" d="M211.047,159.58l10.558,5.9-9.576,13.11-3.541-2.087a12.46,12.46,0,0,1-1.208-.646Z" transform="translate(-82.902 -78.785)" fill="#f48c58"/>
      <path id="Path_80" data-name="Path 80" d="M49.316,137.017c-.84-3.677-3.153-8.82-5.99-11.237l-7.457,4.833s7.754,9.046,7.98,12.813Z" transform="translate(-22.249 -66.825)" fill="#ce5a2c"/>
      <path id="Path_81" data-name="Path 81" d="M38.356,150.685c-1.764-2-4.937-4.426-7.515-4.975l-3.011,5.525s7.883,2.992,9.285,5.279Z" transform="translate(-19.404 -73.877)" fill="#ce5a2c"/>
      <path id="Path_82" data-name="Path 82" d="M60.961,289.675c-1.667,2.5-7.2,17.776-1.383,20.826s9.44,0,6.39-21.381C64.573,286.069,60.961,289.675,60.961,289.675Z" transform="translate(-29.719 -124.189)" fill="#ffae6c"/>
      <path id="Path_83" data-name="Path 83" d="M62.08,317.676c-3.056,2.223-13.194.42-12.923-4.717s2.365-6.8,3.476-1.667,3.877,1.254,3.877,1.254Z" transform="translate(-26.949 -131.364)" fill="#f48c58"/>
      <path id="Path_84" data-name="Path 84" d="M63.1,311.823c-2.358,1.738-9.531,3.825-10.112-3.69-.3-4.013,1.848-5.318,2.714-1.292s3.043.982,3.043.982Z" transform="translate(-28.295 -130.027)" fill="#f48c58"/>
      <path id="Path_85" data-name="Path 85" d="M60.96,290.017a9.047,9.047,0,0,1,1.5-1.157c-1.26,3.651-3.651,14.215-.472,16.5s5.357.388,4.271-13.679c2.494,19.385-1.066,22.111-6.688,19.165C53.761,307.792,59.292,292.517,60.96,290.017Z" transform="translate(-29.718 -124.53)" fill="#f48c58"/>
      <path id="Path_86" data-name="Path 86" d="M51.54,304.321a2.625,2.625,0,0,1,2.391-2.811,2.654,2.654,0,0,1,2.43,2.811,2.439,2.439,0,1,1-4.82,0Z" transform="translate(-27.794 -129.007)" fill="#f48c58"/>
      <path id="Path_87" data-name="Path 87" d="M73.842,271.58l-9.162,9.162,2.772-8.885Z" transform="translate(-22.887 -96.098)" fill="#48b4b7"/>
      <path id="Path_88" data-name="Path 88" d="M132.12,260.17l5.318,10.578-.284-9.162Z" transform="translate(-46.75 -92.06)" fill="#48b4b7"/>
      <path id="Path_89" data-name="Path 89" d="M65.47,121.522a8.866,8.866,0,0,1,1.292-1.06c.646-.33,4.937.168,10.138.95l.782-1.454.129.284,7.2-1.938L83.31,103.72l18.881,11.385s-.762,3.3-1.583,6.856l9.563,2.727-.071.168,2.585,5.169,8.549.892C95.981,145.378,78.419,136.383,65.47,121.522Z" transform="translate(-32.723 -59.019)" fill="#612800" opacity="0.4"/>
      <path id="Path_90" data-name="Path 90" d="M135.956,49.277c1.667-5.279,1.111-13.75-15.546-8.891Z" transform="translate(-52.163 -36.095)" fill="#7c3f15"/>
      <path id="Path_91" data-name="Path 91" d="M89.009,79.758c1.454-16.244-8.891-23.462-1.938-32.211,3.573-4.523,14.3-8.193,19.921-8.4s21.039,5.344,21.174,12.277C128.354,61.019,89.009,79.758,89.009,79.758Z" transform="translate(-39.508 -36.168)" fill="#7c3f15"/>
      <path id="Path_92" data-name="Path 92" d="M86.862,52.57c-2.468,8.949,6.759,14.37,10.474,27.714-4.859,2.572-8.322,4.226-8.322,4.226C90.454,68.433,80.355,61.2,86.862,52.57Z" transform="translate(-39.512 -40.92)" fill="#63300e"/>
      <path id="Path_93" data-name="Path 93" d="M119.39,87.351C122.724,71.52,129.663,53.473,123,50.972S97.155,49.305,94.952,55.14s2.778,33.6,2.778,33.6Z" transform="translate(-42.956 -39.884)" fill="#ffae6c"/>
      <path id="Path_94" data-name="Path 94" d="M94.949,55.151c1.938-5.124,16.974-6.39,25.116-4.924-8.355-.646-20.07.853-21.782,5.337-2.022,5.318,1.938,28.87,2.669,32.954l-3.231.207S92.733,60.98,94.949,55.151Z" transform="translate(-42.953 -39.889)" fill="#f48c58"/>
      <path id="Path_95" data-name="Path 95" d="M91,97.559s8.885,10.552,10.274,12.774,16.936,2.223,19.714.278,5.557-7.754,5.557-7.754-6.113-10-5.279-15.553l-1.389,3.612a11.206,11.206,0,0,0-6.869-2.778c-6.823,0-14.584,6.875-20.031-4.168Z" transform="translate(-41.757 -52.031)" fill="#7c3f15"/>
      <path id="Path_96" data-name="Path 96" d="M137.453,90.97c-.136-.11-.31-.246-.523-.4l.569-1.48a8.2,8.2,0,0,0-.045,1.88Z" transform="translate(-58.009 -53.842)" fill="#63300e"/>
      <path id="Path_97" data-name="Path 97" d="M91.116,82.338c.9-2.081,2.727,2.165,3.114,2.811l-1.6,10.2s8.885,10.558,10.274,12.774,16.154,2.223,19.482.42a8.632,8.632,0,0,1-1.434,1.292c-2.778,1.938-18.325,1.938-19.714-.278S91,96.78,91,96.78Z" transform="translate(-41.757 -51.252)" fill="#63300e"/>
      <path id="Path_98" data-name="Path 98" d="M89.65,79.738c-3.47-.691-4.717,0-4.168,5.415.084.808,3.334,3.748,4.866,3.612C90.231,85.082,89.65,79.738,89.65,79.738Z" transform="translate(-39.76 -50.455)" fill="#f48c58"/>
      <path id="Path_99" data-name="Path 99" d="M124.1,101.248l-.31-.834s-6.558,1.04-11.353-2.585l-2.081.937,2.294,3.541Z" transform="translate(-48.607 -56.935)" fill="#ffe3d4"/>
      <path id="Path_100" data-name="Path 100" d="M112.412,79.358c.51-2.378-2.016-3.114-2.384-.22S111.862,81.924,112.412,79.358Z" transform="translate(-48.475 -49.655)" fill="#563725"/>
      <path id="Path_101" data-name="Path 101" d="M134.361,81.168c.465-2.384-1.938-3.082-2.249-.181S133.857,83.739,134.361,81.168Z" transform="translate(-56.293 -50.301)" fill="#563725"/>
      <path id="Path_102" data-name="Path 102" d="M88.91,37.46l10.616-.31v1.77L89.013,38.4Z" transform="translate(-31.461 -13.145)" fill="#5e2d0d"/>
      <path id="Path_103" data-name="Path 103" d="M124.269,40.491l-9.809-.136.078-1.725,9.679.943Z" transform="translate(-40.501 -13.669)" fill="#5e2d0d"/>
      <path id="Path_104" data-name="Path 104" d="M110.409,41.02l1.46,13.434-6.248.207L102.5,49.666Z" transform="translate(-36.269 -14.515)" fill="#f48c58"/>
      <path id="Path_105" data-name="Path 105" d="M109.165,39.35l1.68,13.75-5.415.207-3.47-4.374Z" transform="translate(-36.078 -13.924)" fill="#ffae6c"/>
      <path id="Path_106" data-name="Path 106" d="M137.6,47.182c-.646,4.026-12.277,5.1-12.923-1.667S138.325,42.594,137.6,47.182Z" transform="translate(-53.666 -37.127)" fill="#7c3f15"/>
      <path id="Path_107" data-name="Path 107" d="M140.335,47.852c4.581-.129,8.865-5.712,7.108-9.692,0,0,.711,7.043-7.883,5.938Z" transform="translate(-58.939 -35.821)" fill="#7c3f15"/>
      <path id="Path_108" data-name="Path 108" d="M140.46,51.918c3.5,2.972,10.416,1.686,11.747-2.449,0,0-4.187,5.706-9.834-.859Z" transform="translate(-59.258 -39.519)" fill="#7c3f15"/>
      <path id="Path_109" data-name="Path 109" d="M140.989,45.712c4.129-1.654,4.756-8.717,1.538-11.172,0,0,4.051,5.673-3.677,7.366Z" transform="translate(-58.688 -34.54)" fill="#7c3f15"/>
      <path id="Path_110" data-name="Path 110" d="M124.479,106.08l-5.9.646S122.677,110.383,124.479,106.08Z" transform="translate(-51.516 -59.854)" fill="#683310"/>
      <path id="Path_111" data-name="Path 111" d="M121.356,284.72c1.389-2.494,1.938-8.051.278-10.83,0,0-1.1,9.169-7.754,11.107Z" transform="translate(-49.853 -119.233)" fill="#d69209"/>
      <g id="Group_25" data-name="Group 25" transform="translate(20.864 120.482)">
        <path id="Path_112" data-name="Path 112" d="M50.815,221.691h0a.337.337,0,0,1,.065.071,2.283,2.283,0,0,1,.213.239c1.706,2.19.9,7.566-3.541,7.011l-.472-.065c4.878,9.35,14.913,24.386,15.7,35.254,0-1.57.045-2.423.045-2.423l.187-.149c-.943-3.36,0-9.5.459-17.892-3.3.058-5.861,0-6.048-.271S54.582,233.057,51.487,221C51.267,221.2,51.041,221.439,50.815,221.691Zm35.2,66.819-.646.22-.032.2Z" transform="translate(-47.08 -221)" fill="url(#linear-gradient)"/>
      </g>
      <path id="Path_113" data-name="Path 113" d="M608.622,117.993c-2.811-3.056.155-16.638,2.358-15.566C613.022,103.422,612.867,122.6,608.622,117.993Z" transform="translate(-224.51 -58.54)" fill="#f48c58"/>
      <path id="Path_114" data-name="Path 114" d="M586.407,122.71c-3.127-2.042-5.815-14.946-3.8-14.526C584.45,108.572,591.131,125.792,586.407,122.71Z" transform="translate(-215.464 -60.595)" fill="#f48c58"/>
      <path id="Path_115" data-name="Path 115" d="M662.083,104.944c8.193-1.228,23.352-10.035,47.525-5.938,0,0,25.2-63.5-26.628-61.863C682.98,37.143,637.478,42.467,662.083,104.944Z" transform="translate(-241.25 -35.45)" fill="#753819"/>
      <path id="Path_116" data-name="Path 116" d="M673.667,117.39c-3.276-13.311-.258-37.968,14.752-40.759,17.614-3.282,28.062,21.917,23.765,35.642C712.184,112.3,689.646,110.838,673.667,117.39Z" transform="translate(-247.509 -49.33)" fill="#5b2812"/>
      <path id="Path_117" data-name="Path 117" d="M623.895,184.707c-5.563-13.414-12.516-40.443-8.3-40.708,4.407-.3,21.123,40.171,17.937,46.82S623.895,184.707,623.895,184.707Z" transform="translate(-226.924 -73.271)" fill="#ffae6c"/>
      <path id="Path_118" data-name="Path 118" d="M637.8,185.25c6.145-12.5,25.2-39.738,28.883-36.055s-18.868,43.047-26.014,45.069S637.8,185.25,637.8,185.25Z" transform="translate(-234.792 -74.99)" fill="#ffae6c"/>
      <path id="Path_119" data-name="Path 119" d="M666.683,149.2c-1.1-1.1-3.6.588-6.714,3.819-4.833,11.883-17.22,32.01-23.21,35.939-.569,3-.42,6.546,3.909,5.311C647.815,192.242,670.373,152.885,666.683,149.2Z" transform="translate(-234.788 -74.991)" fill="#f48c58"/>
      <path id="Path_120" data-name="Path 120" d="M672.179,250.7c-18.8,45.767,16.018,97.246,19.9,178.558l11.069-1.221c.7-87.877,23.643-138.516,7.915-169.57C701.805,234.355,672.179,250.7,672.179,250.7Z" transform="translate(-245.447 -109.111)" fill="#ffae6c"/>
      <path id="Path_121" data-name="Path 121" d="M691.62,340.6l5.292,61.6,3.6-64.486Z" transform="translate(-244.728 -119.498)" fill="#f48c58"/>
      <path id="Path_122" data-name="Path 122" d="M682,379.277l2.074,10.106c5.234-3.625,10.19-4.226,16.4-1.906l3.786,4.633c3.929-1.4,6.358-.982,9.822,1.906l3.8-31.326Z" transform="translate(-250.88 -150.655)" fill="#f48c58"/>
      <path id="Path_123" data-name="Path 123" d="M673,342.307l39.745-13.518s14.338-60.635-11.476-84l-31.545,2.074C652.113,276.755,664.4,304.2,673,342.307Z" transform="translate(-243.363 -108.936)" fill="#43636d"/>
      <path id="Path_124" data-name="Path 124" d="M723.354,244.81h-.194c18.054,26.13,8.807,77.538,7.237,85.48l4.433-1.506S749.168,268.194,723.354,244.81Z" transform="translate(-265.445 -108.943)" fill="#2f5159"/>
      <path id="Path_125" data-name="Path 125" d="M672.74,249.951c6.145,5.738,24.379,9.628,39.331,7.379l-4.523-8.4Z" transform="translate(-247.604 -110.401)" fill="#2f5159"/>
      <path id="Path_126" data-name="Path 126" d="M668.771,211.007c2.255-9.828,5.169-19.553,4.523-22.531-1.842-8.6-14.429-15.391-11.262-23.759,3.483-9.221,8.193-25.607,25.4-25.846,10.649.414,26.628,8.807,21.323,25.607-1.641,12.923-18.848,23.966-2.048,48.345C695.347,215.885,684.272,215.355,668.771,211.007Z" transform="translate(-243.635 -71.457)" fill="#ffc952"/>
      <path id="Path_127" data-name="Path 127" d="M721.637,170.657c-1.615,14.254-16.561,26.667-.833,53.217,1.441-.271,2.875-.594,4.316-.982-16.8-24.379.407-35.442,2.048-48.345C729.707,166.541,723.265,164.906,721.637,170.657Z" transform="translate(-262.086 -81.494)" fill="#f4ac38"/>
      <path id="Path_128" data-name="Path 128" d="M681.354,140.947c-8.607,11.062-17.207,19.869,1.021,19.462s23.766-7.986,19.669-16.8S681.354,140.947,681.354,140.947Z" transform="translate(-247.203 -71.453)" fill="#ffdd92"/>
      <path id="Path_129" data-name="Path 129" d="M682.761,140.758c-7.786,10.009-15.572,17.976.924,17.608s21.5-7.23,17.8-15.2S682.761,140.758,682.761,140.758Z" transform="translate(-248.029 -71.458)" fill="#ffae6c"/>
      <path id="Path_130" data-name="Path 130" d="M719.087,172.687c-2.694-12.361,5.169-20.677,8.4-17.892C733.193,159.712,724.651,198.068,719.087,172.687Z" transform="translate(-263.808 -76.901)" fill="#ffdd92"/>
      <path id="Path_131" data-name="Path 131" d="M722.677,171.793c-2.042-9.363,5.344-15.579,8-13.757S726.871,191.016,722.677,171.793Z" transform="translate(-265.149 -78.126)" fill="#f48c58"/>
      <path id="Path_132" data-name="Path 132" d="M732.322,158.085c10.9,8.658,33.6,30.317,30.3,34.337-3.967,4.807-36.521-20.735-37-28.172S732.322,158.085,732.322,158.085Z" transform="translate(-266.31 -78.227)" fill="#ffae6c"/>
      <path id="Path_133" data-name="Path 133" d="M725.911,163.41a8.1,8.1,0,0,0-.246,2.753c.446,6.888,28.373,29.284,35.661,28.76C750.665,190.7,728.088,171.119,725.911,163.41Z" transform="translate(-266.321 -80.14)" fill="#f48c58"/>
      <path id="Path_134" data-name="Path 134" d="M767.408,213.3c-6.358,10.461-21.142,32.85-24.166,29.91-3.173-3.076,15.4-37.645,22.467-39.725S767.408,213.3,767.408,213.3Z" transform="translate(-272.423 -94.235)" fill="#ffae6c"/>
      <path id="Path_135" data-name="Path 135" d="M705.879,132.166c0-.821-2.048-15.566-2.048-15.566l-8.193-.821-1.027,18.028Z" transform="translate(-255.342 -63.287)" fill="#ffae6c"/>
      <path id="Path_136" data-name="Path 136" d="M604.915,138.993c-2.462-3.282-6.83-7.444-11.34-8.878s-7.373-5.324-5.324-7.754,9.906-5.46,12.768-3.412,8.607,14.952,8.607,20.276S604.915,138.993,604.915,138.993Z" transform="translate(-217.469 -64.169)" fill="#ffae6c"/>
      <path id="Path_137" data-name="Path 137" d="M669.36,131.581l3.483-5.331-.207,5.331Z" transform="translate(-236.851 -44.673)" fill="#f48c58"/>
      <path id="Path_138" data-name="Path 138" d="M768.843,204.23c.078,3.069-2.022,7.7-2.022,7.7-6.016,9.944-19.385,30.369-23.83,31.015a1.15,1.15,0,0,0,.3.588c3.024,2.94,17.814-19.456,24.166-29.91C767.447,213.651,770.742,206.44,768.843,204.23Z" transform="translate(-272.461 -94.584)" fill="#f48c58"/>
      <path id="Path_139" data-name="Path 139" d="M742.208,259.46c-1.383,2.081-5.169,7.179,1.415,12.7,5.324,4.452,8-1.157,7.786-3.69C751,263.576,742.208,259.46,742.208,259.46Z" transform="translate(-271.356 -114.127)" fill="#ffae6c"/>
      <path id="Path_140" data-name="Path 140" d="M751.506,269.409c-.252-2.959-3.567-5.634-6.145-7.289,1.06,1.706,1.938,3.741,1.447,5.415-.523,1.874-3.948,5.169-6.565.556-.039-.065-.071-.129-.1-.194a9.844,9.844,0,0,0,3.58,5.2C749.044,277.55,751.719,271.942,751.506,269.409Z" transform="translate(-271.453 -115.068)" fill="#f48c58"/>
      <path id="Path_141" data-name="Path 141" d="M616.34,144c3.392,6.016,11.928,34.815,10.881,44.992,2.152,2.979,5.169,5.77,7.03,1.829C637.443,184.171,620.792,143.845,616.34,144Z" transform="translate(-227.647 -73.272)" fill="#f48c58"/>
      <path id="Path_142" data-name="Path 142" d="M605.277,118.942c-2.636-1.887-3.877,1.079-5.667,3.483a2.862,2.862,0,0,1,1.551.33c3.173,1.538,10.985,13.285,11.915,18.532v.168c.465-.207.782-.859.782-2.236C613.884,133.894,608.146,120.991,605.277,118.942Z" transform="translate(-221.727 -64.194)" fill="#f48c58"/>
      <path id="Path_143" data-name="Path 143" d="M754.887,264.418c-.646-1.1-1.764-1.635-2.494-1.208s-.8,1.674-.155,2.766,1.764,1.635,2.494,1.208S755.533,265.51,754.887,264.418Z" transform="translate(-275.577 -115.402)" fill="#ffae6c"/>
      <path id="Path_144" data-name="Path 144" d="M710.476,202.33c-13.924,1.021-25.4,3.483-2.662,8.807Z" transform="translate(-255.449 -93.912)" fill="#f4ac38"/>
      <path id="Path_145" data-name="Path 145" d="M710.793,139.239a24.269,24.269,0,0,0-9.337-6.222,8.43,8.43,0,0,0-2.023-1.079c-.31-2.791-1.777-13.369-1.971-14.771-2.5-.174-4.116-.226-4.116-.226l-4.31,3.037-.646,11.631a20.169,20.169,0,0,0-3.664,1.073c-.42.129-.717.233-.879.291-.465.149-.73.246-.73.246l-.233.3a21.621,21.621,0,0,0-6.326,5.085C686.886,142.114,698.878,144.311,710.793,139.239Z" transform="translate(-248.955 -63.697)" fill="#612800" opacity="0.4"/>
      <path id="Path_146" data-name="Path 146" d="M691.109,102.54c-7.993.155-24.554-25.93-15.359-39.738s28.469-11.282,31.752,1S700.911,102.346,691.109,102.54Z" transform="translate(-247.712 -41.239)" fill="#ffae6c"/>
      <path id="Path_147" data-name="Path 147" d="M676.386,100.593C672.9,91.579,665.6,60.854,687.513,54.91c0,0,23.488,9.628,16.115,44.249l6.759,2.662s9.427-48.545-6.145-53.056-53.256-1.021-33.6,58.38Z" transform="translate(-244.898 -39.086)" fill="#753819"/>
      <path id="Path_148" data-name="Path 148" d="M728.975,83.86l-.045,7.011S736.774,86.483,728.975,83.86Z" transform="translate(-267.486 -51.992)" fill="#f48c58"/>
      <path id="Path_149" data-name="Path 149" d="M668.812,92.11l.814,6.959S661.594,95.522,668.812,92.11Z" transform="translate(-245.149 -54.911)" fill="#f48c58"/>
      <path id="Path_150" data-name="Path 150" d="M669.689,257.81l5.26,1.021s.885,41.586-5.26,41.354C661.664,299.933,664.571,275.631,669.689,257.81Z" transform="translate(-244.759 -113.543)" fill="#618891"/>
      <path id="Path_151" data-name="Path 151" d="M669.78,249.744l.685-2.184s26.764,7.508,39.331,1.635l1.228,2.326S699.413,259.029,669.78,249.744Z" transform="translate(-246.556 -109.917)" fill="#cc6825"/>
      <path id="Path_152" data-name="Path 152" d="M687.62,110.31c2.507,5.441,9.964,13.162,15.03.336Z" transform="translate(-252.869 -61.351)" fill="#602a12"/>
      <path id="Path_153" data-name="Path 153" d="M674.8,76.01l2.165,3.237,8.768.065,1.486-3.121Z" transform="translate(-238.776 -26.896)" fill="#ffdfd2"/>
      <path id="Path_154" data-name="Path 154" d="M696.47,99.939c-2.132.911-.407,4.814,1.938,3.379S699.332,98.711,696.47,99.939Z" transform="translate(-255.658 -57.583)" fill="#f48c58"/>
      <path id="Path_155" data-name="Path 155" d="M697.923,100.062c-1.8.769-.349,4.051,1.635,2.843S700.333,99.028,697.923,100.062Z" transform="translate(-256.226 -57.642)" fill="#ffae6c"/>
      <path id="Path_156" data-name="Path 156" d="M689.091,92.494l-4.29.3S686.558,86.957,689.091,92.494Z" transform="translate(-251.871 -54.203)" fill="#593a2d"/>
      <path id="Path_157" data-name="Path 157" d="M711.143,92.791H706.82S708.978,87.086,711.143,92.791Z" transform="translate(-259.663 -54.255)" fill="#593a2d"/>
      <path id="Path_158" data-name="Path 158" d="M680.58,88.943c1.719-2.488,4.523-4.342,7.153-4.045C684.2,83.774,682.092,84.562,680.58,88.943Z" transform="translate(-250.378 -52.196)" fill="#753819"/>
      <path id="Path_159" data-name="Path 159" d="M712.906,88.165c-2.035-2.216-4.982-3.657-7.476-2.992C708.648,83.571,710.793,84.049,712.906,88.165Z" transform="translate(-259.171 -52.155)" fill="#753819"/>
      <path id="Path_160" data-name="Path 160" d="M707.1,100.505c-.582-1.79,5.945-1.454,6.184-.414S707.785,102.605,707.1,100.505Z" transform="translate(-259.749 -57.433)" fill="#f48c58"/>
      <path id="Path_161" data-name="Path 161" d="M679.68,101.455c-.588-1.79,5.945-1.454,6.184-.414S680.358,103.555,679.68,101.455Z" transform="translate(-250.046 -57.769)" fill="#f48c58"/>
      <path id="Path_162" data-name="Path 162" d="M718.6,60.969c5.738-3.547,18.163-3.547,3,4.782Z" transform="translate(-263.831 -43.096)" fill="#ffae6c"/>
      <path id="Path_163" data-name="Path 163" d="M718.16,62.192c4.678-2.9,14.823-2.9,2.449,3.877Z" transform="translate(-263.675 -43.673)" fill="#753819"/>
      <path id="Path_164" data-name="Path 164" d="M578.43,100.981c.123-2.585,7.831-12.432,9.88-12.471s17.485,15.256,17.511,16.626-6.461,12.135-8.529,11.9S578.326,103.042,578.43,100.981Z" transform="translate(-214.232 -53.637)" fill="#778f96"/>
      <path id="Path_165" data-name="Path 165" d="M591.086,90.907A6.854,6.854,0,0,0,588.5,89.33c-1.971.039-9.4,9.511-9.511,12.012-.1,1.938,16.154,15.223,18.157,15.45a1.938,1.938,0,0,0,1.234-.646C596.184,112.281,590.394,93.756,591.086,90.907Z" transform="translate(-214.43 -53.927)" fill="#96b5bc"/>
      <path id="Path_166" data-name="Path 166" d="M593.322,118.515c.788-2.4,8.051-3.606,8.335-1.938S591.978,122.56,593.322,118.515Z" transform="translate(-219.458 -63.295)" fill="#ffae6c"/>
      <path id="Path_167" data-name="Path 167" d="M597.435,128.35c-2.585-.846-4.885-9.046-3.231-9.414S601.8,129.771,597.435,128.35Z" transform="translate(-219.616 -64.4)" fill="#ffae6c"/>
      <path id="Path_168" data-name="Path 168" d="M587.968,120.528c-2.8-2.43-4.226-15.766-2.287-15.559S592.711,124.631,587.968,120.528Z" transform="translate(-216.482 -59.46)" fill="#ffae6c"/>
      <path id="Path_169" data-name="Path 169" d="M576.15,62.513,578.2,59.78l4.239,2.733-2.6,2.733Z" transform="translate(-203.869 -21.153)" fill="#ffd13e"/>
      <path id="Path_170" data-name="Path 170" d="M682.95,548.1c-1.6-5.169,3.7-8.639,7.98-8.174,6.281.646,6.08-8.717,6.4-14.978a31.488,31.488,0,0,0,11.463,1.086s-1.15,11.676,2.753,14.164c2.992,1.938,12.852-1.77,13.188,7.9C724.782,549.491,682.95,548.1,682.95,548.1Z" transform="translate(-251.113 -208.07)" fill="#d8b891"/>
      <path id="Path_171" data-name="Path 171" d="M723.6,540.794c-3.877-2.488-2.753-14.164-2.753-14.164s-.7.349-3.69.136l-.446,21.93c10.552.174,20.1.7,20.076,0C736.45,539.023,726.59,542.7,723.6,540.794Z" transform="translate(-263.162 -208.665)" fill="#c19c74"/>
      <path id="Path_172" data-name="Path 172" d="M711.7,522.44l-22.68,1.363-22.383-1.363-.026,3.134h45.069Z" transform="translate(-235.878 -184.864)" fill="#937351"/>
      <path id="Path_173" data-name="Path 173" d="M702.7,489.721l-5.059,1.428-9.066-1.518.491,4.756,8.245-.582,5.079.523Z" transform="translate(-243.652 -173.254)" fill="#ffe67d"/>
      <path id="Path_174" data-name="Path 174" d="M699.49,546.049c9.8,3.877,15.236,2.585,2.165-2.449Z" transform="translate(-257.069 -214.669)" fill="#c19c74"/>
      <path id="Path_175" data-name="Path 175" d="M703.55,540.734c7.366.439,10.707-1.622.917-2.094Z" transform="translate(-258.506 -212.914)" fill="#c19c74"/>
      <g id="Group_23" data-name="Group 23" transform="translate(212.074 67.413)">
        <g id="Group_10" data-name="Group 10" transform="translate(20.483 1.99)">
          <g id="type">
            <g id="Dash">
              <text id="Quick" transform="translate(0 11)" fill="#6271d2" font-size="12" font-family="Rubik-Medium, Rubik" font-weight="500" letter-spacing="-0.01em"><tspan x="0" y="0">Quic</tspan><tspan y="0">k</tspan></text>
            </g>
            <g id="Elements" transform="translate(37.044)">
              <text id="Credit" transform="translate(0 11)" fill="#6271d2" font-size="12" font-family="Rubik-Light, Rubik" font-weight="300"><tspan x="0" y="0">C</tspan><tspan y="0" letter-spacing="-0.01em">r</tspan><tspan y="0">edit</tspan></text>
            </g>
          </g>
        </g>
        <g id="Group_15" data-name="Group 15">
          <path id="icon-2" d="M351.9,158.377c4.924,0,8.917-7.689,8.917-11.9s-3.993-7.612-8.917-7.612-8.9,3.405-8.9,7.612S346.98,158.377,351.9,158.377Z" transform="translate(-343 -138.87)" fill="#6271d2"/>
          <g id="Dash-2" transform="translate(4.297 1.447)">
            <text id="Q" transform="translate(0 11)" fill="#fff" font-size="12" font-family="Rubik-Medium, Rubik" font-weight="500"><tspan x="0" y="0">Q</tspan></text>
          </g>
        </g>
      </g>
    </g>
  </g>
</svg>
